<svg width="20" height="20" viewBox="0 0 20 20" fill="none" xmlns="http://www.w3.org/2000/svg">
<path d="M12.8535 15.0684C12.8999 15.1191 12.9368 15.1792 12.9619 15.2454C12.9871 15.3116 13 15.3826 13 15.4543C13 15.5259 12.9871 15.5969 12.9619 15.6631C12.9368 15.7293 12.8999 15.7895 12.8535 15.8402C12.807 15.8908 12.7519 15.931 12.6912 15.9585C12.6305 15.9859 12.5655 16 12.4998 16C12.4341 16 12.369 15.9859 12.3084 15.9585C12.2477 15.931 12.1925 15.8908 12.1461 15.8402L7.14663 10.3859C7.10014 10.3352 7.06327 10.2751 7.03811 10.2089C7.01295 10.1427 7 10.0717 7 10C7 9.92832 7.01295 9.85735 7.03811 9.79113C7.06327 9.72492 7.10014 9.66476 7.14663 9.61411L12.1461 4.15984C12.2399 4.0575 12.3671 4 12.4998 4C12.6324 4 12.7597 4.0575 12.8535 4.15984C12.9473 4.26218 13 4.40099 13 4.54573C13 4.69047 12.9473 4.82928 12.8535 4.93162L8.20713 10L12.8535 15.0684Z" fill="white"/>
</svg>
