<svg width="30" height="30" viewBox="0 0 30 30" fill="none" xmlns="http://www.w3.org/2000/svg">
<path d="M26.25 5.625H3.75C3.50136 5.625 3.2629 5.72377 3.08709 5.89959C2.91127 6.0754 2.8125 6.31386 2.8125 6.5625V22.5C2.8125 22.9973 3.01004 23.4742 3.36167 23.8258C3.71331 24.1775 4.19022 24.375 4.6875 24.375H25.3125C25.8098 24.375 26.2867 24.1775 26.6383 23.8258C26.99 23.4742 27.1875 22.9973 27.1875 22.5V6.5625C27.1875 6.31386 27.0887 6.0754 26.9129 5.89959C26.7371 5.72377 26.4986 5.625 26.25 5.625ZM4.6875 13.125H9.375V16.875H4.6875V13.125ZM11.25 13.125H25.3125V16.875H11.25V13.125ZM25.3125 7.5V11.25H4.6875V7.5H25.3125ZM4.6875 18.75H9.375V22.5H4.6875V18.75ZM25.3125 22.5H11.25V18.75H25.3125V22.5Z" fill="white"/>
</svg>
