<svg width="30" height="30" viewBox="0 0 30 30" fill="none" xmlns="http://www.w3.org/2000/svg">
<path d="M28.6875 17.625C28.589 17.6989 28.4769 17.7526 28.3577 17.7832C28.2384 17.8137 28.1143 17.8205 27.9924 17.8031C27.8705 17.7857 27.7533 17.7444 27.6473 17.6817C27.5414 17.619 27.4489 17.536 27.375 17.4375C26.8099 16.678 26.0744 16.0617 25.2277 15.6383C24.381 15.215 23.4467 14.9963 22.5 15C22.3156 15 22.1354 14.9456 21.9818 14.8437C21.8281 14.7418 21.708 14.5968 21.6363 14.4269C21.5877 14.3116 21.5626 14.1877 21.5626 14.0625C21.5626 13.9373 21.5877 13.8134 21.6363 13.698C21.708 13.5282 21.8281 13.3832 21.9818 13.2813C22.1354 13.1794 22.3156 13.125 22.5 13.125C23.026 13.1249 23.5415 12.9774 23.9878 12.6991C24.4342 12.4207 24.7936 12.0228 25.0251 11.5505C25.2567 11.0782 25.3511 10.5504 25.2977 10.0271C25.2443 9.50379 25.0453 9.00594 24.7231 8.5901C24.401 8.17426 23.9687 7.85709 23.4753 7.67462C22.982 7.49216 22.4473 7.45171 21.9321 7.55787C21.4169 7.66403 20.9418 7.91254 20.5608 8.27518C20.1798 8.63782 19.9081 9.10005 19.7766 9.60937C19.7458 9.72864 19.6918 9.84067 19.6177 9.93908C19.5436 10.0375 19.4509 10.1203 19.3448 10.1829C19.2387 10.2455 19.1213 10.2866 18.9994 10.3038C18.8774 10.321 18.7532 10.314 18.634 10.2832C18.5147 10.2524 18.4027 10.1985 18.3043 10.1244C18.2058 10.0503 18.123 9.95756 18.0604 9.85146C17.9979 9.74537 17.9568 9.62798 17.9396 9.50602C17.9224 9.38405 17.9294 9.25989 17.9601 9.14062C18.1427 8.43435 18.4875 7.78042 18.9672 7.23088C19.447 6.68133 20.0483 6.25133 20.7235 5.97509C21.3986 5.69886 22.1289 5.58401 22.8563 5.63968C23.5836 5.69535 24.288 5.92002 24.9132 6.29579C25.5384 6.67156 26.0674 7.18808 26.4579 7.80424C26.8484 8.42039 27.0897 9.11918 27.1626 9.84501C27.2355 10.5708 27.138 11.3037 26.8778 11.9852C26.6177 12.6667 26.2021 13.2781 25.6641 13.7707C26.9388 14.3226 28.047 15.1985 28.8785 16.3113C28.9524 16.4101 29.006 16.5224 29.0364 16.6419C29.0668 16.7614 29.0733 16.8858 29.0555 17.0078C29.0378 17.1298 28.9962 17.2471 28.933 17.3531C28.8698 17.459 28.7864 17.5514 28.6875 17.625ZM22.3734 24.8437C22.4413 24.9504 22.4868 25.0698 22.5073 25.1945C22.5278 25.3193 22.5229 25.4469 22.4928 25.5697C22.4628 25.6925 22.4081 25.808 22.3323 25.9092C22.2564 26.0103 22.1609 26.0951 22.0514 26.1583C21.942 26.2216 21.8208 26.2621 21.6953 26.2773C21.5698 26.2926 21.4425 26.2823 21.321 26.2471C21.1996 26.2118 21.0866 26.1524 20.9887 26.0724C20.8908 25.9923 20.8102 25.8933 20.7516 25.7812C20.161 24.7812 19.3199 23.9525 18.3113 23.3768C17.3026 22.8011 16.1614 22.4983 15 22.4983C13.8386 22.4983 12.6973 22.8011 11.6887 23.3768C10.6801 23.9525 9.839 24.7812 9.24843 25.7812C9.18982 25.8933 9.10915 25.9923 9.01128 26.0724C8.91341 26.1524 8.80036 26.2118 8.67893 26.2471C8.5575 26.2823 8.43019 26.2926 8.30468 26.2773C8.17916 26.2621 8.05802 26.2216 7.94856 26.1583C7.83909 26.0951 7.74355 26.0103 7.66769 25.9092C7.59183 25.808 7.53722 25.6925 7.50714 25.5697C7.47706 25.4469 7.47213 25.3193 7.49265 25.1945C7.51317 25.0698 7.55872 24.9504 7.62655 24.8437C8.53546 23.2821 9.92131 22.0531 11.5805 21.3375C10.6469 20.6227 9.96072 19.6333 9.61851 18.5084C9.27629 17.3835 9.29518 16.1796 9.67255 15.066C10.0499 13.9524 10.7668 12.985 11.7223 12.2999C12.6779 11.6147 13.8242 11.2462 15 11.2462C16.1758 11.2462 17.3221 11.6147 18.2776 12.2999C19.2332 12.985 19.9501 13.9524 20.3274 15.066C20.7048 16.1796 20.7237 17.3835 20.3815 18.5084C20.0393 19.6333 19.3531 20.6227 18.4195 21.3375C20.0787 22.0531 21.4645 23.2821 22.3734 24.8437ZM15 20.625C15.7417 20.625 16.4667 20.4051 17.0834 19.993C17.7001 19.581 18.1807 18.9953 18.4645 18.3101C18.7484 17.6248 18.8226 16.8708 18.6779 16.1434C18.5332 15.416 18.1761 14.7478 17.6516 14.2233C17.1272 13.6989 16.459 13.3417 15.7316 13.1971C15.0041 13.0524 14.2501 13.1266 13.5649 13.4104C12.8797 13.6943 12.294 14.1749 11.882 14.7916C11.4699 15.4083 11.25 16.1333 11.25 16.875C11.25 17.8696 11.6451 18.8234 12.3483 19.5266C13.0516 20.2299 14.0054 20.625 15 20.625ZM8.43749 14.0625C8.43749 13.8139 8.33872 13.5754 8.1629 13.3996C7.98709 13.2238 7.74863 13.125 7.49999 13.125C6.97397 13.1249 6.4585 12.9774 6.01214 12.6991C5.56578 12.4207 5.20642 12.0228 4.97487 11.5505C4.74332 11.0782 4.64887 10.5504 4.70225 10.0271C4.75563 9.50379 4.95469 9.00594 5.27683 8.5901C5.59897 8.17426 6.03128 7.85709 6.52464 7.67462C7.018 7.49216 7.55264 7.45171 8.06784 7.55787C8.58304 7.66403 9.05814 7.91254 9.43918 8.27518C9.82022 8.63782 10.0919 9.10005 10.2234 9.60937C10.2856 9.85024 10.4409 10.0566 10.6552 10.1829C10.8694 10.3093 11.1251 10.3454 11.366 10.2832C11.6069 10.221 11.8132 10.0657 11.9396 9.85146C12.0659 9.63719 12.102 9.38149 12.0398 9.14062C11.8573 8.43435 11.5125 7.78042 11.0327 7.23088C10.553 6.68133 9.95165 6.25133 9.2765 5.97509C8.60134 5.69886 7.87104 5.58401 7.14369 5.63968C6.41634 5.69535 5.71202 5.92002 5.08678 6.29579C4.46153 6.67156 3.93262 7.18808 3.54212 7.80424C3.15163 8.42039 2.91032 9.11918 2.83741 9.84501C2.7645 10.5708 2.862 11.3037 3.12215 11.9852C3.3823 12.6667 3.79791 13.2781 4.33593 13.7707C3.06243 14.3232 1.95551 15.199 1.12499 16.3113C0.97565 16.5102 0.911444 16.7603 0.946497 17.0066C0.98155 17.2528 1.11299 17.4751 1.3119 17.6244C1.51082 17.7738 1.76091 17.838 2.00716 17.8029C2.25341 17.7678 2.47565 17.6364 2.62499 17.4375C3.19005 16.678 3.92555 16.0617 4.77228 15.6383C5.61902 15.215 6.55332 14.9963 7.49999 15C7.74863 15 7.98709 14.9012 8.1629 14.7254C8.33872 14.5496 8.43749 14.3111 8.43749 14.0625Z" fill="white"/>
</svg>
