<svg width="51" height="68" viewBox="0 0 51 68" fill="none" xmlns="http://www.w3.org/2000/svg">
<path d="M50.293 48.8151C50.293 49.6211 49.6213 50.2928 48.8152 50.2928H37.1518C36.3458 50.2928 35.6741 49.6211 35.6741 48.8151V37.1517C35.6741 36.3457 36.3458 35.674 37.1518 35.674H48.8152C49.6213 35.674 50.293 36.3457 50.293 37.1517V48.8151Z" fill="#479C44"/>
<path d="M32.8528 13.9472C32.8528 14.7533 32.1811 15.425 31.375 15.425H19.7117C18.9056 15.425 18.2339 14.7533 18.2339 13.9472V2.14952C18.2339 1.34346 18.9056 0.671753 19.7117 0.671753H31.375C32.1811 0.671753 32.8528 1.34346 32.8528 2.14952V13.9472Z" fill="#479C44"/>
<path d="M50.293 13.9472C50.293 14.7533 49.6213 15.425 48.8152 15.425H37.1518C36.3458 15.425 35.6741 14.7533 35.6741 13.9472V2.14952C35.6741 1.34346 36.3458 0.671753 37.1518 0.671753H48.8152C49.6213 0.671753 50.293 1.34346 50.293 2.14952V13.9472Z" fill="#479C44"/>
<path d="M15.425 31.3873C15.425 32.1933 14.7533 32.865 13.9473 32.865H2.28392C1.47786 32.865 0.806152 32.1933 0.806152 31.3873V19.5896C0.806152 18.7835 1.47786 18.1118 2.28392 18.1118H13.9473C14.7533 18.1118 15.425 18.7835 15.425 19.5896V31.3873Z" fill="#479C44"/>
<path d="M32.8528 31.3873C32.8528 32.1933 32.1811 32.865 31.375 32.865H19.7117C18.9056 32.865 18.2339 32.1933 18.2339 31.3873V19.5896C18.2339 18.7835 18.9056 18.1118 19.7117 18.1118H31.375C32.1811 18.1118 32.8528 18.7835 32.8528 19.5896V31.3873Z" fill="#479C44"/>
<path d="M15.425 48.8151C15.425 49.6211 14.7533 50.2928 13.9473 50.2928H2.28392C1.47786 50.2928 0.806152 49.6211 0.806152 48.8151V37.1517C0.806152 36.3457 1.47786 35.674 2.28392 35.674H13.9473C14.7533 35.674 15.425 36.3457 15.425 37.1517V48.8151Z" fill="#479C44"/>
<path d="M32.8528 48.8151C32.8528 49.6211 32.1811 50.2928 31.375 50.2928H19.7117C18.9056 50.2928 18.2339 49.6211 18.2339 48.8151V37.1517C18.2339 36.3457 18.9056 35.674 19.7117 35.674H31.375C32.1811 35.674 32.8528 36.3457 32.8528 37.1517V48.8151Z" fill="#479C44"/>
<path d="M15.425 66.2553C15.425 67.0613 14.7533 67.733 13.9473 67.733H2.28392C1.47786 67.733 0.806152 67.0613 0.806152 66.2553V54.5919C0.806152 53.7858 1.47786 53.1141 2.28392 53.1141H13.9473C14.7533 53.1141 15.425 53.7858 15.425 54.5919V66.2553Z" fill="#479C44"/>
<path d="M32.8528 66.2553C32.8528 67.0613 32.1811 67.733 31.375 67.733H19.7117C18.9056 67.733 18.2339 67.0613 18.2339 66.2553V54.5919C18.2339 53.7858 18.9056 53.1141 19.7117 53.1141H31.375C32.1811 53.1141 32.8528 53.7858 32.8528 54.5919V66.2553Z" fill="#479C44"/>
<path d="M16.0967 8.04833C16.0967 12.4694 12.4816 16.0967 8.04833 16.0967C3.61503 16.0967 0 12.4694 0 8.04833C0 3.62724 3.61503 0 8.04833 0C12.4816 0 16.0967 3.61503 16.0967 8.04833Z" fill="#C43429"/>
</svg>
